<svg id="Layer_1" data-name="Layer 1" xmlns="http://www.w3.org/2000/svg" viewBox="0 0 260 62.65"><defs><style>.cls-1{fill:#fff;}</style></defs><title>CLAM_Website_Assets</title><path class="cls-1" d="M260,26.47a19.69,19.69,0,0,0-2.94-10.23A28.08,28.08,0,0,0,249,7.84a41.43,41.43,0,0,0-12.09-5.72A52.28,52.28,0,0,0,222,0a53.64,53.64,0,0,0-11.84,1.3A53.64,53.64,0,0,0,198.29,0a52.3,52.3,0,0,0-14.95,2.12,41.49,41.49,0,0,0-12.08,5.72,29.37,29.37,0,0,0-6.69,6.37,29.37,29.37,0,0,0-6.69-6.37A41.49,41.49,0,0,0,145.8,2.12a53.77,53.77,0,0,0-29.9,0,41.49,41.49,0,0,0-12.08,5.72,28.08,28.08,0,0,0-8.06,8.4,19.66,19.66,0,0,0-2.94,10.23v.14c0,5.52,2.41,10.81,7,15.3a34.23,34.23,0,0,0,7.91,5.72,44.59,44.59,0,0,0,10.15,3.87,4.77,4.77,0,0,0,1.15.14c1.61,0,2.93-.77,2.93-1.71,0-.58-.49-1.11-1.31-1.43-8.62-3.36-14.19-10.65-14.19-18.57V29.8c0-5.54,2.63-10.74,7.39-14.63a27.76,27.76,0,0,1,34,0c4.76,3.89,7.39,9.09,7.39,14.63v.13c0,7.92-5.57,15.21-14.19,18.57-.82.32-1.31.85-1.31,1.43,0,.94,1.32,1.71,2.93,1.71a4.77,4.77,0,0,0,1.15-.14A44.59,44.59,0,0,0,154,47.63a34.23,34.23,0,0,0,7.91-5.72,28.68,28.68,0,0,0,2.67-3,28.68,28.68,0,0,0,2.67,3,34.23,34.23,0,0,0,7.91,5.72A44.77,44.77,0,0,0,185.3,51.5a4.83,4.83,0,0,0,1.15.14c1.62,0,2.93-.77,2.93-1.71,0-.58-.49-1.11-1.31-1.43-8.62-3.36-14.18-10.65-14.19-18.57V29.8a18.87,18.87,0,0,1,7.4-14.63A25.86,25.86,0,0,1,192.19,10a26.52,26.52,0,0,0-5.32,6.25,19.66,19.66,0,0,0-2.94,10.23v.14c0,5.52,2.42,10.81,7,15.3a34.44,34.44,0,0,0,7.91,5.72A42.94,42.94,0,0,0,205,50.3c-19.11,7.34-42.28,8.91-61.67,8.91-23.59,0-43.17-5.76-51.3-15-4.53-5.17-6.67-10-6.67-17.56v-.14a22.47,22.47,0,0,1,3.16-11.39A31.28,31.28,0,0,1,97.27,5.6l0,0c.6-.43-.25-1-1-.74C80.78,10.53,73,9.37,69.43,8.19c-.72-.23-1.49.24-1.11.68a25.68,25.68,0,0,1,6.49,16.88v.14c0,7.4-3.31,14.41-9.32,19.75l-.5.43c24.39,0,28.31,16.58,78.49,16.58,31.82,0,63.1-4.54,81-16.85a32.41,32.41,0,0,0,4.85-3.89c4.56-4.49,7-9.78,7-15.3a.2.2,0,0,0,0-.07.17.17,0,0,0,0-.07,19.78,19.78,0,0,0-2.94-10.23A26.76,26.76,0,0,0,228.07,10,25.91,25.91,0,0,1,239,15.17c4.77,3.89,7.39,9.09,7.39,14.63v.13c0,7.92-5.57,15.21-14.18,18.57-.82.32-1.31.85-1.31,1.43,0,.94,1.31,1.71,2.92,1.71A4.91,4.91,0,0,0,235,51.5a44.77,44.77,0,0,0,10.15-3.87A34.23,34.23,0,0,0,253,41.91c4.57-4.49,7-9.78,7-15.3v-.14Zm-37.3,3.44v0c0,7.41-4.88,14.27-12.57,17.87-7.69-3.6-12.57-10.46-12.57-17.87V29.8c0-5.54,2.62-10.74,7.39-14.63a24.69,24.69,0,0,1,5.18-3.25,25.22,25.22,0,0,1,5.18,3.25c4.76,3.89,7.39,9.09,7.39,14.63v.11Z"/><path class="cls-1" d="M66.74,31.59A3.38,3.38,0,0,0,64.79,31a2.72,2.72,0,0,0-2.4,1.05c-3.51,7.06-12.66,11.8-22.78,11.8-13.38,0-24.26-8.08-24.27-18v-.11c0-9.94,10.89-18,24.27-18,10.12,0,19.27,4.74,22.78,11.8a2.7,2.7,0,0,0,2.4,1.05,3.38,3.38,0,0,0,1.95-.55,1,1,0,0,0,.49-1.21,23.05,23.05,0,0,0-4.55-7.44,30.32,30.32,0,0,0-7.37-6,38.73,38.73,0,0,0-9.68-4A44.79,44.79,0,0,0,34.24,0,43.73,43.73,0,0,0,20.7,2.09,36,36,0,0,0,9.83,7.67a26.54,26.54,0,0,0-7.21,8.17A20.24,20.24,0,0,0,0,25.75v.14a20.31,20.31,0,0,0,2.62,9.92A26.62,26.62,0,0,0,9.83,44,36.06,36.06,0,0,0,20.7,49.56a44,44,0,0,0,13.54,2.08,44.79,44.79,0,0,0,11.39-1.45,38.73,38.73,0,0,0,9.68-4,30.29,30.29,0,0,0,7.37-6,23.1,23.1,0,0,0,4.55-7.45A1,1,0,0,0,66.74,31.59Z"/><circle class="cls-1" cx="130.87" cy="29.68" r="11.19"/></svg>