<svg id="Layer_1" data-name="Layer 1" xmlns="http://www.w3.org/2000/svg" viewBox="0 0 40 40.78"><defs><style>.cls-1{fill:#fff;}</style></defs><title>CLAM_Website_Assets</title><path class="cls-1" d="M23.7,9.14a.17.17,0,0,0-.22.15.16.16,0,0,0,.08.14,3.7,3.7,0,0,1,2.16,3.11c0,2.19-2.56,4-5.72,4h0c-3.16,0-5.72-1.78-5.72-4a3.7,3.7,0,0,1,2.16-3.11.16.16,0,0,0,.08-.14.17.17,0,0,0-.22-.15c-2.68.94-4.52,2.87-4.52,5.09,0,3.15,3.68,5.71,8.22,5.71h0c4.54,0,8.22-2.56,8.22-5.71C28.22,12,26.38,10.08,23.7,9.14Z"/><path class="cls-1" d="M39.87,33.38l-6.06-1.79a4.21,4.21,0,0,0,2.1-3.2c0-2.59-2.88-3.46-9-3.9a.15.15,0,0,1-.06-.29s9-3.63,9-10.38C35.91,8.28,30.34,3.66,23,2.67A3,3,0,0,0,20,0h0a3,3,0,0,0-3,2.67C9.66,3.66,4.09,8.28,4.09,13.82c0,6.75,9,10.38,9,10.38a.15.15,0,0,1-.06.29c-6.09.44-9,1.31-9,3.9a4.21,4.21,0,0,0,2.1,3.2L.13,33.38a.21.21,0,0,0-.12.26.2.2,0,0,0,.26.12l7-1.52a24.35,24.35,0,0,0,6.59,2.2S9.47,38.87,8,40.32a.25.25,0,0,0,.1.45.28.28,0,0,0,.25-.06l9.8-8.12a2.87,2.87,0,0,1,3.66,0l9.8,8.12a.28.28,0,0,0,.25.06.25.25,0,0,0,.1-.45c-1.45-1.45-5.86-5.88-5.82-5.88a24.35,24.35,0,0,0,6.59-2.2l7,1.52a.2.2,0,0,0,.26-.12A.21.21,0,0,0,39.87,33.38ZM8.1,29.26c0-2.41,3.61-4,6.73-3.63,1.62.19,2.56.77,2.74,1.48.15.55-.07,1-1.33,1.41L8.7,30.82A2.37,2.37,0,0,1,8.1,29.26Zm9.86.91a.33.33,0,0,1-.1.23c-.4.38-1.94,1.94-2.72,2.72a1.23,1.23,0,0,1-1.14.34A13.91,13.91,0,0,1,9.62,31.7l8.22-1.9a.1.1,0,0,1,.12.09ZM20,22.45H20c-7.38,0-13.37-4.3-13.37-9.59C6.59,8.28,11.06,4.45,17,3.5A3,3,0,0,0,20,6h0A3,3,0,0,0,23,3.5c6,1,10.44,4.78,10.44,9.36C33.41,18.15,27.42,22.45,20,22.45Zm6,11a1.23,1.23,0,0,1-1.14-.34c-.78-.78-2.32-2.34-2.72-2.72a.33.33,0,0,1-.1-.23v-.28a.1.1,0,0,1,.12-.09l8.22,1.9A13.91,13.91,0,0,1,26,33.46Zm5.3-2.64-7.54-2.3c-1.26-.45-1.48-.86-1.33-1.41.18-.71,1.12-1.29,2.74-1.48,3.12-.38,6.73,1.22,6.73,3.63A2.37,2.37,0,0,1,31.3,30.82Z"/><path class="cls-1" d="M17.57,27.09v0h0Z"/><polygon class="cls-1" points="17.86 30.4 17.86 30.4 17.86 30.4 17.86 30.4"/></svg>