<svg id="Layer_1" data-name="Layer 1" xmlns="http://www.w3.org/2000/svg" viewBox="0 0 50 28.02"><defs><style>.cls-1{fill:#fff;}</style></defs><title>CLAM_Website_Assets</title><path class="cls-1" d="M19.81,14A5.47,5.47,0,0,0,25,19.35,5.47,5.47,0,0,0,30.19,14,5.47,5.47,0,0,0,25,8.67,5.47,5.47,0,0,0,19.81,14Z"/><path class="cls-1" d="M4.43,18.8c3.14,2,7.18,4.29,10.71,6.1S21.83,28,24.89,28h.22c3.06,0,6.15-1.31,9.75-3.12s7.57-4.1,10.71-6.1C48.31,17,50.05,15.48,50,14c0-1.25-1.19-2.48-3.1-3.86s-4.54-2.88-7.28-4.43-5.39-3-7.78-4A17,17,0,0,0,25.08,0h-.16a17,17,0,0,0-6.76,1.67c-2.39,1-5,2.48-7.78,4S5,8.74,3.1,10.1,0,12.71,0,14C0,15.48,1.69,17,4.43,18.8ZM5.15,11A41.63,41.63,0,0,1,11,7.87,53.65,53.65,0,0,1,18,5.15a24.41,24.41,0,0,1,6.87-1.1h.22A24.41,24.41,0,0,1,32,5.15,53.65,53.65,0,0,1,39,7.87,41.63,41.63,0,0,1,44.85,11c1.54,1.07,2.39,2,2.39,3,0,1.21-1.31,2.61-3.74,4.35-.35.26-.73.52-1.13.79a62.31,62.31,0,0,1-7.07,4.16,40.1,40.1,0,0,1-4.79,2,16.52,16.52,0,0,1-5.45,1h-.12a16.52,16.52,0,0,1-5.45-1,40.1,40.1,0,0,1-4.79-2,62.31,62.31,0,0,1-7.07-4.16c-.4-.27-.78-.53-1.13-.79C4.07,16.65,2.74,15.25,2.76,14,2.76,13.08,3.61,12.11,5.15,11Z"/></svg>